%FSLAX45Y45*%
G04 Gerber Fmt 4.5, Leading zero omitted, Abs format (unit mm)*
G04 Created by KiCad (PCBNEW (6.0.2-0)) date 2022-08-03 13:24:26*
%MOMM*%
%LPD*%
G01*
G04 APERTURE LIST*
%TA.AperFunction,Profile*%
%ADD10C,0.100000*%
%TD*%
%ADD11C,0.200000*%
%ADD12C,0.040000*%
%ADD13C,0.050000*%
G04 APERTURE END LIST*
D10*
X9047000Y-10952000D02*
X10953000Y-10952000D01*
X10953000Y-10952000D02*
X10953000Y-9047000D01*
X10953000Y-9047000D02*
X9047000Y-9047000D01*
X9047000Y-9047000D02*
X9047000Y-10952000D01*
D11*
D12*
X9460000Y-9760000D02*
X9500000Y-9800000D01*
X9500000Y-9760000D02*
X9460000Y-9800000D01*
X9460000Y-10290000D02*
X9500000Y-10330000D01*
X9500000Y-10290000D02*
X9460000Y-10330000D01*
X10380000Y-10320000D02*
X10420000Y-10360000D01*
X10420000Y-10320000D02*
X10380000Y-10360000D01*
D13*
X9250000Y-9675000D02*
G75*
G03*
X9250000Y-9675000I-25000J0D01*
G01*
X9250000Y-10445000D02*
G75*
G03*
X9250000Y-10445000I-25000J0D01*
G01*
X9620000Y-10775000D02*
G75*
G03*
X9620000Y-10775000I-25000J0D01*
G01*
X9650000Y-9225000D02*
G75*
G03*
X9650000Y-9225000I-25000J0D01*
G01*
X10425000Y-9225000D02*
G75*
G03*
X10425000Y-9225000I-25000J0D01*
G01*
X10440000Y-10775000D02*
G75*
G03*
X10440000Y-10775000I-25000J0D01*
G01*
X10800000Y-9675000D02*
G75*
G03*
X10800000Y-9675000I-25000J0D01*
G01*
X10800000Y-10445000D02*
G75*
G03*
X10800000Y-10445000I-25000J0D01*
G01*
D11*
X9299619Y-11267476D02*
X9299619Y-11067476D01*
X9347238Y-11067476D01*
X9375810Y-11077000D01*
X9394857Y-11096048D01*
X9404381Y-11115095D01*
X9413905Y-11153190D01*
X9413905Y-11181762D01*
X9404381Y-11219857D01*
X9394857Y-11238905D01*
X9375810Y-11257952D01*
X9347238Y-11267476D01*
X9299619Y-11267476D01*
X9499619Y-11267476D02*
X9499619Y-11134143D01*
X9499619Y-11172238D02*
X9509143Y-11153190D01*
X9518667Y-11143667D01*
X9537714Y-11134143D01*
X9556762Y-11134143D01*
X9623429Y-11267476D02*
X9623429Y-11134143D01*
X9623429Y-11067476D02*
X9613905Y-11077000D01*
X9623429Y-11086524D01*
X9632952Y-11077000D01*
X9623429Y-11067476D01*
X9623429Y-11086524D01*
X9747238Y-11267476D02*
X9728190Y-11257952D01*
X9718667Y-11238905D01*
X9718667Y-11067476D01*
X9852000Y-11267476D02*
X9832952Y-11257952D01*
X9823429Y-11238905D01*
X9823429Y-11067476D01*
X10080571Y-11267476D02*
X10080571Y-11067476D01*
X10147238Y-11210333D01*
X10213905Y-11067476D01*
X10213905Y-11267476D01*
X10394857Y-11267476D02*
X10394857Y-11162714D01*
X10385333Y-11143667D01*
X10366286Y-11134143D01*
X10328190Y-11134143D01*
X10309143Y-11143667D01*
X10394857Y-11257952D02*
X10375810Y-11267476D01*
X10328190Y-11267476D01*
X10309143Y-11257952D01*
X10299619Y-11238905D01*
X10299619Y-11219857D01*
X10309143Y-11200809D01*
X10328190Y-11191286D01*
X10375810Y-11191286D01*
X10394857Y-11181762D01*
X10490095Y-11134143D02*
X10490095Y-11334143D01*
X10490095Y-11143667D02*
X10509143Y-11134143D01*
X10547238Y-11134143D01*
X10566286Y-11143667D01*
X10575810Y-11153190D01*
X10585333Y-11172238D01*
X10585333Y-11229381D01*
X10575810Y-11248428D01*
X10566286Y-11257952D01*
X10547238Y-11267476D01*
X10509143Y-11267476D01*
X10490095Y-11257952D01*
X10671048Y-11248428D02*
X10680571Y-11257952D01*
X10671048Y-11267476D01*
X10661524Y-11257952D01*
X10671048Y-11248428D01*
X10671048Y-11267476D01*
X10671048Y-11143667D02*
X10680571Y-11153190D01*
X10671048Y-11162714D01*
X10661524Y-11153190D01*
X10671048Y-11143667D01*
X10671048Y-11162714D01*
D12*
X9002000Y-11577000D02*
X9042000Y-11617000D01*
X9042000Y-11577000D02*
X9002000Y-11617000D01*
D11*
X9337714Y-11487476D02*
X9356762Y-11487476D01*
X9375810Y-11497000D01*
X9385333Y-11506524D01*
X9394857Y-11525571D01*
X9404381Y-11563667D01*
X9404381Y-11611286D01*
X9394857Y-11649381D01*
X9385333Y-11668428D01*
X9375810Y-11677952D01*
X9356762Y-11687476D01*
X9337714Y-11687476D01*
X9318667Y-11677952D01*
X9309143Y-11668428D01*
X9299619Y-11649381D01*
X9290095Y-11611286D01*
X9290095Y-11563667D01*
X9299619Y-11525571D01*
X9309143Y-11506524D01*
X9318667Y-11497000D01*
X9337714Y-11487476D01*
X9490095Y-11668428D02*
X9499619Y-11677952D01*
X9490095Y-11687476D01*
X9480571Y-11677952D01*
X9490095Y-11668428D01*
X9490095Y-11687476D01*
X9671048Y-11554143D02*
X9671048Y-11687476D01*
X9623429Y-11477952D02*
X9575810Y-11620809D01*
X9699619Y-11620809D01*
X9813905Y-11487476D02*
X9832952Y-11487476D01*
X9852000Y-11497000D01*
X9861524Y-11506524D01*
X9871048Y-11525571D01*
X9880571Y-11563667D01*
X9880571Y-11611286D01*
X9871048Y-11649381D01*
X9861524Y-11668428D01*
X9852000Y-11677952D01*
X9832952Y-11687476D01*
X9813905Y-11687476D01*
X9794857Y-11677952D01*
X9785333Y-11668428D01*
X9775810Y-11649381D01*
X9766286Y-11611286D01*
X9766286Y-11563667D01*
X9775810Y-11525571D01*
X9785333Y-11506524D01*
X9794857Y-11497000D01*
X9813905Y-11487476D01*
X10004381Y-11487476D02*
X10023429Y-11487476D01*
X10042476Y-11497000D01*
X10052000Y-11506524D01*
X10061524Y-11525571D01*
X10071048Y-11563667D01*
X10071048Y-11611286D01*
X10061524Y-11649381D01*
X10052000Y-11668428D01*
X10042476Y-11677952D01*
X10023429Y-11687476D01*
X10004381Y-11687476D01*
X9985333Y-11677952D01*
X9975810Y-11668428D01*
X9966286Y-11649381D01*
X9956762Y-11611286D01*
X9956762Y-11563667D01*
X9966286Y-11525571D01*
X9975810Y-11506524D01*
X9985333Y-11497000D01*
X10004381Y-11487476D01*
X10156762Y-11687476D02*
X10156762Y-11554143D01*
X10156762Y-11573190D02*
X10166286Y-11563667D01*
X10185333Y-11554143D01*
X10213905Y-11554143D01*
X10232952Y-11563667D01*
X10242476Y-11582714D01*
X10242476Y-11687476D01*
X10242476Y-11582714D02*
X10252000Y-11563667D01*
X10271048Y-11554143D01*
X10299619Y-11554143D01*
X10318667Y-11563667D01*
X10328190Y-11582714D01*
X10328190Y-11687476D01*
X10423429Y-11687476D02*
X10423429Y-11554143D01*
X10423429Y-11573190D02*
X10432952Y-11563667D01*
X10452000Y-11554143D01*
X10480571Y-11554143D01*
X10499619Y-11563667D01*
X10509143Y-11582714D01*
X10509143Y-11687476D01*
X10509143Y-11582714D02*
X10518667Y-11563667D01*
X10537714Y-11554143D01*
X10566286Y-11554143D01*
X10585333Y-11563667D01*
X10594857Y-11582714D01*
X10594857Y-11687476D01*
X10985333Y-11477952D02*
X10813905Y-11735095D01*
X11242476Y-11487476D02*
X11261524Y-11487476D01*
X11280571Y-11497000D01*
X11290095Y-11506524D01*
X11299619Y-11525571D01*
X11309143Y-11563667D01*
X11309143Y-11611286D01*
X11299619Y-11649381D01*
X11290095Y-11668428D01*
X11280571Y-11677952D01*
X11261524Y-11687476D01*
X11242476Y-11687476D01*
X11223428Y-11677952D01*
X11213905Y-11668428D01*
X11204381Y-11649381D01*
X11194857Y-11611286D01*
X11194857Y-11563667D01*
X11204381Y-11525571D01*
X11213905Y-11506524D01*
X11223428Y-11497000D01*
X11242476Y-11487476D01*
X11394857Y-11668428D02*
X11404381Y-11677952D01*
X11394857Y-11687476D01*
X11385333Y-11677952D01*
X11394857Y-11668428D01*
X11394857Y-11687476D01*
X11528190Y-11487476D02*
X11547238Y-11487476D01*
X11566286Y-11497000D01*
X11575809Y-11506524D01*
X11585333Y-11525571D01*
X11594857Y-11563667D01*
X11594857Y-11611286D01*
X11585333Y-11649381D01*
X11575809Y-11668428D01*
X11566286Y-11677952D01*
X11547238Y-11687476D01*
X11528190Y-11687476D01*
X11509143Y-11677952D01*
X11499619Y-11668428D01*
X11490095Y-11649381D01*
X11480571Y-11611286D01*
X11480571Y-11563667D01*
X11490095Y-11525571D01*
X11499619Y-11506524D01*
X11509143Y-11497000D01*
X11528190Y-11487476D01*
X11785333Y-11687476D02*
X11671048Y-11687476D01*
X11728190Y-11687476D02*
X11728190Y-11487476D01*
X11709143Y-11516048D01*
X11690095Y-11535095D01*
X11671048Y-11544619D01*
X11966286Y-11487476D02*
X11871048Y-11487476D01*
X11861524Y-11582714D01*
X11871048Y-11573190D01*
X11890095Y-11563667D01*
X11937714Y-11563667D01*
X11956762Y-11573190D01*
X11966286Y-11582714D01*
X11975809Y-11601762D01*
X11975809Y-11649381D01*
X11966286Y-11668428D01*
X11956762Y-11677952D01*
X11937714Y-11687476D01*
X11890095Y-11687476D01*
X11871048Y-11677952D01*
X11861524Y-11668428D01*
X12042476Y-11487476D02*
X12175809Y-11487476D01*
X12090095Y-11687476D01*
X12242476Y-11487476D02*
X12242476Y-11525571D01*
X12318667Y-11487476D02*
X12318667Y-11525571D01*
X12613905Y-11763667D02*
X12604381Y-11754143D01*
X12585333Y-11725571D01*
X12575809Y-11706524D01*
X12566286Y-11677952D01*
X12556762Y-11630333D01*
X12556762Y-11592238D01*
X12566286Y-11544619D01*
X12575809Y-11516048D01*
X12585333Y-11497000D01*
X12604381Y-11468428D01*
X12613905Y-11458905D01*
X12671048Y-11487476D02*
X12794857Y-11487476D01*
X12728190Y-11563667D01*
X12756762Y-11563667D01*
X12775809Y-11573190D01*
X12785333Y-11582714D01*
X12794857Y-11601762D01*
X12794857Y-11649381D01*
X12785333Y-11668428D01*
X12775809Y-11677952D01*
X12756762Y-11687476D01*
X12699619Y-11687476D01*
X12680571Y-11677952D01*
X12671048Y-11668428D01*
X13032952Y-11687476D02*
X13032952Y-11487476D01*
X13118667Y-11687476D02*
X13118667Y-11582714D01*
X13109143Y-11563667D01*
X13090095Y-11554143D01*
X13061524Y-11554143D01*
X13042476Y-11563667D01*
X13032952Y-11573190D01*
X13242476Y-11687476D02*
X13223428Y-11677952D01*
X13213905Y-11668428D01*
X13204381Y-11649381D01*
X13204381Y-11592238D01*
X13213905Y-11573190D01*
X13223428Y-11563667D01*
X13242476Y-11554143D01*
X13271048Y-11554143D01*
X13290095Y-11563667D01*
X13299619Y-11573190D01*
X13309143Y-11592238D01*
X13309143Y-11649381D01*
X13299619Y-11668428D01*
X13290095Y-11677952D01*
X13271048Y-11687476D01*
X13242476Y-11687476D01*
X13423428Y-11687476D02*
X13404381Y-11677952D01*
X13394857Y-11658905D01*
X13394857Y-11487476D01*
X13575809Y-11677952D02*
X13556762Y-11687476D01*
X13518667Y-11687476D01*
X13499619Y-11677952D01*
X13490095Y-11658905D01*
X13490095Y-11582714D01*
X13499619Y-11563667D01*
X13518667Y-11554143D01*
X13556762Y-11554143D01*
X13575809Y-11563667D01*
X13585333Y-11582714D01*
X13585333Y-11601762D01*
X13490095Y-11620809D01*
X13661524Y-11677952D02*
X13680571Y-11687476D01*
X13718667Y-11687476D01*
X13737714Y-11677952D01*
X13747238Y-11658905D01*
X13747238Y-11649381D01*
X13737714Y-11630333D01*
X13718667Y-11620809D01*
X13690095Y-11620809D01*
X13671048Y-11611286D01*
X13661524Y-11592238D01*
X13661524Y-11582714D01*
X13671048Y-11563667D01*
X13690095Y-11554143D01*
X13718667Y-11554143D01*
X13737714Y-11563667D01*
X13813905Y-11763667D02*
X13823428Y-11754143D01*
X13842476Y-11725571D01*
X13852000Y-11706524D01*
X13861524Y-11677952D01*
X13871048Y-11630333D01*
X13871048Y-11592238D01*
X13861524Y-11544619D01*
X13852000Y-11516048D01*
X13842476Y-11497000D01*
X13823428Y-11468428D01*
X13813905Y-11458905D01*
D13*
X9042000Y-11861000D02*
G75*
G03*
X9042000Y-11861000I-25000J0D01*
G01*
D11*
X9337714Y-11751476D02*
X9356762Y-11751476D01*
X9375810Y-11761000D01*
X9385333Y-11770524D01*
X9394857Y-11789571D01*
X9404381Y-11827667D01*
X9404381Y-11875286D01*
X9394857Y-11913381D01*
X9385333Y-11932428D01*
X9375810Y-11941952D01*
X9356762Y-11951476D01*
X9337714Y-11951476D01*
X9318667Y-11941952D01*
X9309143Y-11932428D01*
X9299619Y-11913381D01*
X9290095Y-11875286D01*
X9290095Y-11827667D01*
X9299619Y-11789571D01*
X9309143Y-11770524D01*
X9318667Y-11761000D01*
X9337714Y-11751476D01*
X9490095Y-11932428D02*
X9499619Y-11941952D01*
X9490095Y-11951476D01*
X9480571Y-11941952D01*
X9490095Y-11932428D01*
X9490095Y-11951476D01*
X9680571Y-11751476D02*
X9585333Y-11751476D01*
X9575810Y-11846714D01*
X9585333Y-11837190D01*
X9604381Y-11827667D01*
X9652000Y-11827667D01*
X9671048Y-11837190D01*
X9680571Y-11846714D01*
X9690095Y-11865762D01*
X9690095Y-11913381D01*
X9680571Y-11932428D01*
X9671048Y-11941952D01*
X9652000Y-11951476D01*
X9604381Y-11951476D01*
X9585333Y-11941952D01*
X9575810Y-11932428D01*
X9813905Y-11751476D02*
X9832952Y-11751476D01*
X9852000Y-11761000D01*
X9861524Y-11770524D01*
X9871048Y-11789571D01*
X9880571Y-11827667D01*
X9880571Y-11875286D01*
X9871048Y-11913381D01*
X9861524Y-11932428D01*
X9852000Y-11941952D01*
X9832952Y-11951476D01*
X9813905Y-11951476D01*
X9794857Y-11941952D01*
X9785333Y-11932428D01*
X9775810Y-11913381D01*
X9766286Y-11875286D01*
X9766286Y-11827667D01*
X9775810Y-11789571D01*
X9785333Y-11770524D01*
X9794857Y-11761000D01*
X9813905Y-11751476D01*
X10004381Y-11751476D02*
X10023429Y-11751476D01*
X10042476Y-11761000D01*
X10052000Y-11770524D01*
X10061524Y-11789571D01*
X10071048Y-11827667D01*
X10071048Y-11875286D01*
X10061524Y-11913381D01*
X10052000Y-11932428D01*
X10042476Y-11941952D01*
X10023429Y-11951476D01*
X10004381Y-11951476D01*
X9985333Y-11941952D01*
X9975810Y-11932428D01*
X9966286Y-11913381D01*
X9956762Y-11875286D01*
X9956762Y-11827667D01*
X9966286Y-11789571D01*
X9975810Y-11770524D01*
X9985333Y-11761000D01*
X10004381Y-11751476D01*
X10156762Y-11951476D02*
X10156762Y-11818143D01*
X10156762Y-11837190D02*
X10166286Y-11827667D01*
X10185333Y-11818143D01*
X10213905Y-11818143D01*
X10232952Y-11827667D01*
X10242476Y-11846714D01*
X10242476Y-11951476D01*
X10242476Y-11846714D02*
X10252000Y-11827667D01*
X10271048Y-11818143D01*
X10299619Y-11818143D01*
X10318667Y-11827667D01*
X10328190Y-11846714D01*
X10328190Y-11951476D01*
X10423429Y-11951476D02*
X10423429Y-11818143D01*
X10423429Y-11837190D02*
X10432952Y-11827667D01*
X10452000Y-11818143D01*
X10480571Y-11818143D01*
X10499619Y-11827667D01*
X10509143Y-11846714D01*
X10509143Y-11951476D01*
X10509143Y-11846714D02*
X10518667Y-11827667D01*
X10537714Y-11818143D01*
X10566286Y-11818143D01*
X10585333Y-11827667D01*
X10594857Y-11846714D01*
X10594857Y-11951476D01*
X10985333Y-11741952D02*
X10813905Y-11999095D01*
X11242476Y-11751476D02*
X11261524Y-11751476D01*
X11280571Y-11761000D01*
X11290095Y-11770524D01*
X11299619Y-11789571D01*
X11309143Y-11827667D01*
X11309143Y-11875286D01*
X11299619Y-11913381D01*
X11290095Y-11932428D01*
X11280571Y-11941952D01*
X11261524Y-11951476D01*
X11242476Y-11951476D01*
X11223428Y-11941952D01*
X11213905Y-11932428D01*
X11204381Y-11913381D01*
X11194857Y-11875286D01*
X11194857Y-11827667D01*
X11204381Y-11789571D01*
X11213905Y-11770524D01*
X11223428Y-11761000D01*
X11242476Y-11751476D01*
X11394857Y-11932428D02*
X11404381Y-11941952D01*
X11394857Y-11951476D01*
X11385333Y-11941952D01*
X11394857Y-11932428D01*
X11394857Y-11951476D01*
X11528190Y-11751476D02*
X11547238Y-11751476D01*
X11566286Y-11761000D01*
X11575809Y-11770524D01*
X11585333Y-11789571D01*
X11594857Y-11827667D01*
X11594857Y-11875286D01*
X11585333Y-11913381D01*
X11575809Y-11932428D01*
X11566286Y-11941952D01*
X11547238Y-11951476D01*
X11528190Y-11951476D01*
X11509143Y-11941952D01*
X11499619Y-11932428D01*
X11490095Y-11913381D01*
X11480571Y-11875286D01*
X11480571Y-11827667D01*
X11490095Y-11789571D01*
X11499619Y-11770524D01*
X11509143Y-11761000D01*
X11528190Y-11751476D01*
X11785333Y-11951476D02*
X11671048Y-11951476D01*
X11728190Y-11951476D02*
X11728190Y-11751476D01*
X11709143Y-11780048D01*
X11690095Y-11799095D01*
X11671048Y-11808619D01*
X11880571Y-11951476D02*
X11918667Y-11951476D01*
X11937714Y-11941952D01*
X11947238Y-11932428D01*
X11966286Y-11903857D01*
X11975809Y-11865762D01*
X11975809Y-11789571D01*
X11966286Y-11770524D01*
X11956762Y-11761000D01*
X11937714Y-11751476D01*
X11899619Y-11751476D01*
X11880571Y-11761000D01*
X11871048Y-11770524D01*
X11861524Y-11789571D01*
X11861524Y-11837190D01*
X11871048Y-11856238D01*
X11880571Y-11865762D01*
X11899619Y-11875286D01*
X11937714Y-11875286D01*
X11956762Y-11865762D01*
X11966286Y-11856238D01*
X11975809Y-11837190D01*
X12042476Y-11751476D02*
X12175809Y-11751476D01*
X12090095Y-11951476D01*
X12242476Y-11751476D02*
X12242476Y-11789571D01*
X12318667Y-11751476D02*
X12318667Y-11789571D01*
X12613905Y-12027667D02*
X12604381Y-12018143D01*
X12585333Y-11989571D01*
X12575809Y-11970524D01*
X12566286Y-11941952D01*
X12556762Y-11894333D01*
X12556762Y-11856238D01*
X12566286Y-11808619D01*
X12575809Y-11780048D01*
X12585333Y-11761000D01*
X12604381Y-11732428D01*
X12613905Y-11722905D01*
X12718667Y-11837190D02*
X12699619Y-11827667D01*
X12690095Y-11818143D01*
X12680571Y-11799095D01*
X12680571Y-11789571D01*
X12690095Y-11770524D01*
X12699619Y-11761000D01*
X12718667Y-11751476D01*
X12756762Y-11751476D01*
X12775809Y-11761000D01*
X12785333Y-11770524D01*
X12794857Y-11789571D01*
X12794857Y-11799095D01*
X12785333Y-11818143D01*
X12775809Y-11827667D01*
X12756762Y-11837190D01*
X12718667Y-11837190D01*
X12699619Y-11846714D01*
X12690095Y-11856238D01*
X12680571Y-11875286D01*
X12680571Y-11913381D01*
X12690095Y-11932428D01*
X12699619Y-11941952D01*
X12718667Y-11951476D01*
X12756762Y-11951476D01*
X12775809Y-11941952D01*
X12785333Y-11932428D01*
X12794857Y-11913381D01*
X12794857Y-11875286D01*
X12785333Y-11856238D01*
X12775809Y-11846714D01*
X12756762Y-11837190D01*
X13032952Y-11951476D02*
X13032952Y-11751476D01*
X13118667Y-11951476D02*
X13118667Y-11846714D01*
X13109143Y-11827667D01*
X13090095Y-11818143D01*
X13061524Y-11818143D01*
X13042476Y-11827667D01*
X13032952Y-11837190D01*
X13242476Y-11951476D02*
X13223428Y-11941952D01*
X13213905Y-11932428D01*
X13204381Y-11913381D01*
X13204381Y-11856238D01*
X13213905Y-11837190D01*
X13223428Y-11827667D01*
X13242476Y-11818143D01*
X13271048Y-11818143D01*
X13290095Y-11827667D01*
X13299619Y-11837190D01*
X13309143Y-11856238D01*
X13309143Y-11913381D01*
X13299619Y-11932428D01*
X13290095Y-11941952D01*
X13271048Y-11951476D01*
X13242476Y-11951476D01*
X13423428Y-11951476D02*
X13404381Y-11941952D01*
X13394857Y-11922905D01*
X13394857Y-11751476D01*
X13575809Y-11941952D02*
X13556762Y-11951476D01*
X13518667Y-11951476D01*
X13499619Y-11941952D01*
X13490095Y-11922905D01*
X13490095Y-11846714D01*
X13499619Y-11827667D01*
X13518667Y-11818143D01*
X13556762Y-11818143D01*
X13575809Y-11827667D01*
X13585333Y-11846714D01*
X13585333Y-11865762D01*
X13490095Y-11884809D01*
X13661524Y-11941952D02*
X13680571Y-11951476D01*
X13718667Y-11951476D01*
X13737714Y-11941952D01*
X13747238Y-11922905D01*
X13747238Y-11913381D01*
X13737714Y-11894333D01*
X13718667Y-11884809D01*
X13690095Y-11884809D01*
X13671048Y-11875286D01*
X13661524Y-11856238D01*
X13661524Y-11846714D01*
X13671048Y-11827667D01*
X13690095Y-11818143D01*
X13718667Y-11818143D01*
X13737714Y-11827667D01*
X13813905Y-12027667D02*
X13823428Y-12018143D01*
X13842476Y-11989571D01*
X13852000Y-11970524D01*
X13861524Y-11941952D01*
X13871048Y-11894333D01*
X13871048Y-11856238D01*
X13861524Y-11808619D01*
X13852000Y-11780048D01*
X13842476Y-11761000D01*
X13823428Y-11732428D01*
X13813905Y-11722905D01*
M02*
