G04 #@! TF.GenerationSoftware,KiCad,Pcbnew,(6.0.2-0)*
G04 #@! TF.CreationDate,2022-08-03T13:24:13+02:00*
G04 #@! TF.ProjectId,optical-amoeba,6f707469-6361-46c2-9d61-6d6f6562612e,rev?*
G04 #@! TF.SameCoordinates,Original*
G04 #@! TF.FileFunction,Copper,L1,Top*
G04 #@! TF.FilePolarity,Positive*
%FSLAX46Y46*%
G04 Gerber Fmt 4.6, Leading zero omitted, Abs format (unit mm)*
G04 Created by KiCad (PCBNEW (6.0.2-0)) date 2022-08-03 13:24:13*
%MOMM*%
%LPD*%
G01*
G04 APERTURE LIST*
G04 Aperture macros list*
%AMRoundRect*
0 Rectangle with rounded corners*
0 $1 Rounding radius*
0 $2 $3 $4 $5 $6 $7 $8 $9 X,Y pos of 4 corners*
0 Add a 4 corners polygon primitive as box body*
4,1,4,$2,$3,$4,$5,$6,$7,$8,$9,$2,$3,0*
0 Add four circle primitives for the rounded corners*
1,1,$1+$1,$2,$3*
1,1,$1+$1,$4,$5*
1,1,$1+$1,$6,$7*
1,1,$1+$1,$8,$9*
0 Add four rect primitives between the rounded corners*
20,1,$1+$1,$2,$3,$4,$5,0*
20,1,$1+$1,$4,$5,$6,$7,0*
20,1,$1+$1,$6,$7,$8,$9,0*
20,1,$1+$1,$8,$9,$2,$3,0*%
G04 Aperture macros list end*
G04 #@! TA.AperFunction,SMDPad,CuDef*
%ADD10RoundRect,0.250000X0.450000X-0.262500X0.450000X0.262500X-0.450000X0.262500X-0.450000X-0.262500X0*%
G04 #@! TD*
G04 #@! TA.AperFunction,SMDPad,CuDef*
%ADD11RoundRect,0.200000X0.200000X0.275000X-0.200000X0.275000X-0.200000X-0.275000X0.200000X-0.275000X0*%
G04 #@! TD*
G04 #@! TA.AperFunction,SMDPad,CuDef*
%ADD12R,1.400000X0.800000*%
G04 #@! TD*
G04 #@! TA.AperFunction,SMDPad,CuDef*
%ADD13R,1.400000X1.000000*%
G04 #@! TD*
G04 #@! TA.AperFunction,ComponentPad*
%ADD14R,2.500000X1.500000*%
G04 #@! TD*
G04 #@! TA.AperFunction,ComponentPad*
%ADD15R,1.500000X2.500000*%
G04 #@! TD*
G04 #@! TA.AperFunction,ViaPad*
%ADD16C,0.800000*%
G04 #@! TD*
G04 #@! TA.AperFunction,Conductor*
%ADD17C,0.250000*%
G04 #@! TD*
G04 APERTURE END LIST*
D10*
X91800000Y-101612500D03*
X91800000Y-99787500D03*
D11*
X100725000Y-108300000D03*
X99075000Y-108300000D03*
D12*
X96600000Y-98512500D03*
X96600000Y-101512500D03*
D13*
X103400000Y-98500000D03*
X103400000Y-101500000D03*
D14*
X107750000Y-104450000D03*
X107750000Y-96750000D03*
X92250000Y-104450000D03*
X92250000Y-96750000D03*
D15*
X104150000Y-107750000D03*
X95950000Y-107750000D03*
X104000000Y-92250000D03*
X96250000Y-92250000D03*
D16*
X104000000Y-103400000D03*
X94800000Y-97800000D03*
X94800000Y-103100000D03*
D17*
X91800000Y-101612500D02*
X93900000Y-99512500D01*
X93900000Y-99512500D02*
X93900000Y-98400000D01*
X94500000Y-97800000D02*
X94800000Y-97800000D01*
X93900000Y-98400000D02*
X94500000Y-97800000D01*
X91800000Y-99787500D02*
X92250000Y-99337500D01*
X92250000Y-99337500D02*
X92250000Y-96750000D01*
X96600000Y-101512500D02*
X96600000Y-105400000D01*
X99075000Y-107875000D02*
X96600000Y-105400000D01*
X99075000Y-108300000D02*
X99075000Y-107875000D01*
X104150000Y-107750000D02*
X101275000Y-107750000D01*
X101275000Y-107750000D02*
X100725000Y-108300000D01*
X106000000Y-98500000D02*
X107750000Y-96750000D01*
X103400000Y-98500000D02*
X101650000Y-96750000D01*
X101650000Y-96750000D02*
X92250000Y-96750000D01*
X103400000Y-98500000D02*
X106000000Y-98500000D01*
X104150000Y-103550000D02*
X104150000Y-107750000D01*
X104000000Y-103400000D02*
X104150000Y-103550000D01*
X92250000Y-103450000D02*
X96600000Y-99100000D01*
X96600000Y-99100000D02*
X96600000Y-98512500D01*
X92250000Y-104450000D02*
X92250000Y-103450000D01*
X103400000Y-101500000D02*
X104800000Y-101500000D01*
X104800000Y-101500000D02*
X107750000Y-104450000D01*
X95950000Y-107750000D02*
X95950000Y-104250000D01*
X95950000Y-104250000D02*
X94800000Y-103100000D01*
M02*
