G04 #@! TF.GenerationSoftware,KiCad,Pcbnew,(6.0.2-0)*
G04 #@! TF.CreationDate,2022-08-03T13:24:13+02:00*
G04 #@! TF.ProjectId,optical-amoeba,6f707469-6361-46c2-9d61-6d6f6562612e,rev?*
G04 #@! TF.SameCoordinates,Original*
G04 #@! TF.FileFunction,Legend,Top*
G04 #@! TF.FilePolarity,Positive*
%FSLAX46Y46*%
G04 Gerber Fmt 4.6, Leading zero omitted, Abs format (unit mm)*
G04 Created by KiCad (PCBNEW (6.0.2-0)) date 2022-08-03 13:24:13*
%MOMM*%
%LPD*%
G01*
G04 APERTURE LIST*
G04 Aperture macros list*
%AMRoundRect*
0 Rectangle with rounded corners*
0 $1 Rounding radius*
0 $2 $3 $4 $5 $6 $7 $8 $9 X,Y pos of 4 corners*
0 Add a 4 corners polygon primitive as box body*
4,1,4,$2,$3,$4,$5,$6,$7,$8,$9,$2,$3,0*
0 Add four circle primitives for the rounded corners*
1,1,$1+$1,$2,$3*
1,1,$1+$1,$4,$5*
1,1,$1+$1,$6,$7*
1,1,$1+$1,$8,$9*
0 Add four rect primitives between the rounded corners*
20,1,$1+$1,$2,$3,$4,$5,0*
20,1,$1+$1,$4,$5,$6,$7,0*
20,1,$1+$1,$6,$7,$8,$9,0*
20,1,$1+$1,$8,$9,$2,$3,0*%
G04 Aperture macros list end*
%ADD10C,0.100000*%
%ADD11C,0.150000*%
%ADD12C,0.125000*%
%ADD13C,0.120000*%
%ADD14C,0.127000*%
%ADD15RoundRect,0.250000X0.450000X-0.262500X0.450000X0.262500X-0.450000X0.262500X-0.450000X-0.262500X0*%
%ADD16RoundRect,0.200000X0.200000X0.275000X-0.200000X0.275000X-0.200000X-0.275000X0.200000X-0.275000X0*%
%ADD17R,1.400000X0.800000*%
%ADD18R,1.400000X1.000000*%
%ADD19R,2.500000X1.500000*%
%ADD20R,1.500000X2.500000*%
G04 APERTURE END LIST*
D10*
X96194761Y-102880952D02*
X96194761Y-102480952D01*
X96613809Y-102880952D02*
X96480476Y-102690476D01*
X96385238Y-102880952D02*
X96385238Y-102480952D01*
X96537619Y-102480952D01*
X96575714Y-102500000D01*
X96594761Y-102519047D01*
X96613809Y-102557142D01*
X96613809Y-102614285D01*
X96594761Y-102652380D01*
X96575714Y-102671428D01*
X96537619Y-102690476D01*
X96385238Y-102690476D01*
X97280476Y-102880952D02*
X97090000Y-102880952D01*
X97090000Y-102480952D01*
X97413809Y-102671428D02*
X97547142Y-102671428D01*
X97604285Y-102880952D02*
X97413809Y-102880952D01*
X97413809Y-102480952D01*
X97604285Y-102480952D01*
X97775714Y-102880952D02*
X97775714Y-102480952D01*
X97870952Y-102480952D01*
X97928095Y-102500000D01*
X97966190Y-102538095D01*
X97985238Y-102576190D01*
X98004285Y-102652380D01*
X98004285Y-102709523D01*
X97985238Y-102785714D01*
X97966190Y-102823809D01*
X97928095Y-102861904D01*
X97870952Y-102880952D01*
X97775714Y-102880952D01*
X102642857Y-102880952D02*
X102642857Y-102480952D01*
X102795238Y-102480952D01*
X102833333Y-102500000D01*
X102852380Y-102519047D01*
X102871428Y-102557142D01*
X102871428Y-102614285D01*
X102852380Y-102652380D01*
X102833333Y-102671428D01*
X102795238Y-102690476D01*
X102642857Y-102690476D01*
X102985714Y-102480952D02*
X103214285Y-102480952D01*
X103100000Y-102880952D02*
X103100000Y-102480952D01*
D11*
X94152380Y-101466666D02*
X93676190Y-101800000D01*
X94152380Y-102038095D02*
X93152380Y-102038095D01*
X93152380Y-101657142D01*
X93200000Y-101561904D01*
X93247619Y-101514285D01*
X93342857Y-101466666D01*
X93485714Y-101466666D01*
X93580952Y-101514285D01*
X93628571Y-101561904D01*
X93676190Y-101657142D01*
X93676190Y-102038095D01*
X94152380Y-101038095D02*
X93152380Y-101038095D01*
X93152380Y-100657142D01*
X93200000Y-100561904D01*
X93247619Y-100514285D01*
X93342857Y-100466666D01*
X93485714Y-100466666D01*
X93580952Y-100514285D01*
X93628571Y-100561904D01*
X93676190Y-100657142D01*
X93676190Y-101038095D01*
X94152380Y-99514285D02*
X94152380Y-100085714D01*
X94152380Y-99800000D02*
X93152380Y-99800000D01*
X93295238Y-99895238D01*
X93390476Y-99990476D01*
X93438095Y-100085714D01*
X99428571Y-106052380D02*
X99095238Y-105576190D01*
X98857142Y-106052380D02*
X98857142Y-105052380D01*
X99238095Y-105052380D01*
X99333333Y-105100000D01*
X99380952Y-105147619D01*
X99428571Y-105242857D01*
X99428571Y-105385714D01*
X99380952Y-105480952D01*
X99333333Y-105528571D01*
X99238095Y-105576190D01*
X98857142Y-105576190D01*
X100333333Y-106052380D02*
X99857142Y-106052380D01*
X99857142Y-105052380D01*
X101190476Y-106052380D02*
X100619047Y-106052380D01*
X100904761Y-106052380D02*
X100904761Y-105052380D01*
X100809523Y-105195238D01*
X100714285Y-105290476D01*
X100619047Y-105338095D01*
X99578703Y-100737710D02*
X98938703Y-100737710D01*
X98938703Y-100585330D01*
X98969180Y-100493901D01*
X99030132Y-100432949D01*
X99091084Y-100402472D01*
X99212989Y-100371996D01*
X99304418Y-100371996D01*
X99426322Y-100402472D01*
X99487275Y-100432949D01*
X99548227Y-100493901D01*
X99578703Y-100585330D01*
X99578703Y-100737710D01*
X99578703Y-99762472D02*
X99578703Y-100128187D01*
X99578703Y-99945330D02*
X98938703Y-99945330D01*
X99030132Y-100006282D01*
X99091084Y-100067234D01*
X99121560Y-100128187D01*
X101061296Y-99808122D02*
X101030820Y-99869074D01*
X100969867Y-99930027D01*
X100878439Y-100021455D01*
X100847962Y-100082408D01*
X100847962Y-100143360D01*
X101000343Y-100112884D02*
X100969867Y-100173836D01*
X100908915Y-100234789D01*
X100787010Y-100265265D01*
X100573677Y-100265265D01*
X100451772Y-100234789D01*
X100390820Y-100173836D01*
X100360343Y-100112884D01*
X100360343Y-99990979D01*
X100390820Y-99930027D01*
X100451772Y-99869074D01*
X100573677Y-99838598D01*
X100787010Y-99838598D01*
X100908915Y-99869074D01*
X100969867Y-99930027D01*
X101000343Y-99990979D01*
X101000343Y-100112884D01*
X101000343Y-99229074D02*
X101000343Y-99594789D01*
X101000343Y-99411931D02*
X100360343Y-99411931D01*
X100451772Y-99472884D01*
X100512724Y-99533836D01*
X100543200Y-99594789D01*
D12*
X102264285Y-101807142D02*
X102264285Y-101640476D01*
X102526190Y-101569047D02*
X102526190Y-101807142D01*
X102026190Y-101807142D01*
X102026190Y-101569047D01*
X102478571Y-98145238D02*
X102502380Y-98169047D01*
X102526190Y-98240476D01*
X102526190Y-98288095D01*
X102502380Y-98359523D01*
X102454761Y-98407142D01*
X102407142Y-98430952D01*
X102311904Y-98454761D01*
X102240476Y-98454761D01*
X102145238Y-98430952D01*
X102097619Y-98407142D01*
X102050000Y-98359523D01*
X102026190Y-98288095D01*
X102026190Y-98240476D01*
X102050000Y-98169047D01*
X102073809Y-98145238D01*
D13*
X91065000Y-100927064D02*
X91065000Y-100472936D01*
X92535000Y-100927064D02*
X92535000Y-100472936D01*
X100137258Y-107777500D02*
X99662742Y-107777500D01*
X100137258Y-108822500D02*
X99662742Y-108822500D01*
D14*
X97150000Y-100792500D02*
X97150000Y-99232500D01*
X97480000Y-100957500D02*
G75*
G03*
X97480000Y-99067500I-334642J945000D01*
G01*
D13*
X96600000Y-99712500D02*
X96200000Y-99012500D01*
X96200000Y-99012500D02*
X97000000Y-99012500D01*
X97000000Y-99012500D02*
X96600000Y-99712500D01*
G36*
X96600000Y-99712500D02*
G01*
X96200000Y-99012500D01*
X97000000Y-99012500D01*
X96600000Y-99712500D01*
G37*
X96600000Y-99712500D02*
X96200000Y-99012500D01*
X97000000Y-99012500D01*
X96600000Y-99712500D01*
D14*
X102850000Y-99230000D02*
X102850000Y-100790000D01*
X102520000Y-99065000D02*
G75*
G03*
X102520000Y-100955000I334642J-945000D01*
G01*
D13*
X103800000Y-99100000D02*
X103400000Y-99800000D01*
X103400000Y-99800000D02*
X103000000Y-99100000D01*
X103000000Y-99100000D02*
X103800000Y-99100000D01*
G36*
X103400000Y-99800000D02*
G01*
X103000000Y-99100000D01*
X103800000Y-99100000D01*
X103400000Y-99800000D01*
G37*
X103400000Y-99800000D02*
X103000000Y-99100000D01*
X103800000Y-99100000D01*
X103400000Y-99800000D01*
%LPC*%
D15*
X91800000Y-101612500D03*
X91800000Y-99787500D03*
D16*
X100725000Y-108300000D03*
X99075000Y-108300000D03*
D17*
X96600000Y-98512500D03*
X96600000Y-101512500D03*
D18*
X103400000Y-98500000D03*
X103400000Y-101500000D03*
D19*
X107750000Y-104450000D03*
X107750000Y-96750000D03*
X92250000Y-104450000D03*
X92250000Y-96750000D03*
D20*
X104150000Y-107750000D03*
X95950000Y-107750000D03*
X104000000Y-92250000D03*
X96250000Y-92250000D03*
M02*
