%FSLAX45Y45*%
G04 Gerber Fmt 4.5, Leading zero omitted, Abs format (unit mm)*
G04 Created by KiCad (PCBNEW (6.0.2-0)) date 2022-08-03 13:24:26*
%MOMM*%
%LPD*%
G01*
G04 APERTURE LIST*
%TA.AperFunction,Profile*%
%ADD10C,0.100000*%
%TD*%
%ADD11C,0.200000*%
G04 APERTURE END LIST*
D10*
X9047000Y-10952000D02*
X10953000Y-10952000D01*
X10953000Y-10952000D02*
X10953000Y-9047000D01*
X10953000Y-9047000D02*
X9047000Y-9047000D01*
X9047000Y-9047000D02*
X9047000Y-10952000D01*
D11*
X9299619Y-11267476D02*
X9299619Y-11067476D01*
X9347238Y-11067476D01*
X9375810Y-11077000D01*
X9394857Y-11096048D01*
X9404381Y-11115095D01*
X9413905Y-11153190D01*
X9413905Y-11181762D01*
X9404381Y-11219857D01*
X9394857Y-11238905D01*
X9375810Y-11257952D01*
X9347238Y-11267476D01*
X9299619Y-11267476D01*
X9499619Y-11267476D02*
X9499619Y-11134143D01*
X9499619Y-11172238D02*
X9509143Y-11153190D01*
X9518667Y-11143667D01*
X9537714Y-11134143D01*
X9556762Y-11134143D01*
X9623429Y-11267476D02*
X9623429Y-11134143D01*
X9623429Y-11067476D02*
X9613905Y-11077000D01*
X9623429Y-11086524D01*
X9632952Y-11077000D01*
X9623429Y-11067476D01*
X9623429Y-11086524D01*
X9747238Y-11267476D02*
X9728190Y-11257952D01*
X9718667Y-11238905D01*
X9718667Y-11067476D01*
X9852000Y-11267476D02*
X9832952Y-11257952D01*
X9823429Y-11238905D01*
X9823429Y-11067476D01*
X10080571Y-11267476D02*
X10080571Y-11067476D01*
X10147238Y-11210333D01*
X10213905Y-11067476D01*
X10213905Y-11267476D01*
X10394857Y-11267476D02*
X10394857Y-11162714D01*
X10385333Y-11143667D01*
X10366286Y-11134143D01*
X10328190Y-11134143D01*
X10309143Y-11143667D01*
X10394857Y-11257952D02*
X10375810Y-11267476D01*
X10328190Y-11267476D01*
X10309143Y-11257952D01*
X10299619Y-11238905D01*
X10299619Y-11219857D01*
X10309143Y-11200809D01*
X10328190Y-11191286D01*
X10375810Y-11191286D01*
X10394857Y-11181762D01*
X10490095Y-11134143D02*
X10490095Y-11334143D01*
X10490095Y-11143667D02*
X10509143Y-11134143D01*
X10547238Y-11134143D01*
X10566286Y-11143667D01*
X10575810Y-11153190D01*
X10585333Y-11172238D01*
X10585333Y-11229381D01*
X10575810Y-11248428D01*
X10566286Y-11257952D01*
X10547238Y-11267476D01*
X10509143Y-11267476D01*
X10490095Y-11257952D01*
X10671048Y-11248428D02*
X10680571Y-11257952D01*
X10671048Y-11267476D01*
X10661524Y-11257952D01*
X10671048Y-11248428D01*
X10671048Y-11267476D01*
X10671048Y-11143667D02*
X10680571Y-11153190D01*
X10671048Y-11162714D01*
X10661524Y-11153190D01*
X10671048Y-11143667D01*
X10671048Y-11162714D01*
M02*
